<?xml version="1.0" encoding="UTF-8" standalone="no"?>
<!DOCTYPE svg PUBLIC "-//W3C//DTD SVG 1.1//EN" "http://www.w3.org/Graphics/SVG/1.1/DTD/svg11.dtd">
<svg width="100%" height="100%" viewBox="0 0 949 403" version="1.1" xmlns="http://www.w3.org/2000/svg" xmlns:xlink="http://www.w3.org/1999/xlink" xml:space="preserve" xmlns:serif="http://www.serif.com/" style="fill-rule:evenodd;clip-rule:evenodd;stroke-linejoin:round;stroke-miterlimit:2;">
    <g transform="matrix(1,0,0,1,-122,-195)">
        <path d="M610.724,215.427C643.736,214.291 676.962,219.256 708.097,230.304C754.938,246.747 796.8,276.88 827.431,315.913C840.906,333.036 852.193,351.859 861.037,371.774C862.606,375.087 863.814,378.812 862.974,382.504C861.946,388.703 856.513,393.826 850.263,394.446C843.773,395.394 837.066,391.345 834.752,385.23C817.162,343.839 787.144,307.886 749.698,282.999C726.55,267.53 700.588,256.267 673.465,249.96C638.489,241.779 601.663,241.779 566.68,249.935C516.729,261.437 470.993,290.089 438.736,329.901C425.059,346.675 413.766,365.373 405.252,385.267C403.41,389.889 399.177,393.513 394.238,394.325C389.475,395.244 384.289,393.599 380.968,390.052C377.053,386.129 375.772,379.858 377.791,374.71C401.221,319.314 444.606,272.778 497.946,245.078C532.688,226.893 571.551,216.75 610.724,215.427" style="fill:rgb(244,152,19);fill-rule:nonzero;"/>
    </g>
    <g transform="matrix(1,0,0,1,-122,-195)">
        <path d="M567.101,385.991C566.904,383.114 569.626,380.96 572.323,380.893C575.828,380.798 579.343,380.828 582.855,380.877C585.296,380.96 588.145,382.587 588.135,385.328C588.26,417.516 588.059,449.715 588.243,481.923C601.285,467.42 614.438,452.997 627.527,438.538C630.105,435.996 632.142,432.144 636.152,431.813C641.554,431.59 646.97,431.723 652.378,431.73C654.462,431.543 656.788,433.453 656.057,435.678C655.202,437.395 653.634,438.574 652.353,439.937C638.201,454.079 623.994,468.171 609.913,482.373C623.515,497.9 636.927,513.585 650.468,529.169C652.209,531.387 654.39,533.268 655.851,535.714C656.921,537.624 655.148,539.951 653.099,540.041C648.603,540.293 644.096,540.041 639.589,540.149C637.245,540.095 634.711,540.437 632.582,539.229C630.339,537.942 628.977,535.641 627.372,533.705C614.312,517.259 601.339,500.748 588.232,484.33C588.097,500.521 588.192,516.704 588.181,532.883C588.131,534.751 588.513,537.001 586.887,538.364C584.297,540.863 580.443,539.986 577.213,540.149C574.345,540.052 570.992,540.678 568.663,538.562C567.366,537.552 567.026,535.829 567.076,534.297C567.112,484.854 567.062,435.419 567.101,385.99M507.61,431.46C514.158,429.354 521.539,428.953 527.954,431.73C530.204,432.787 532.818,435.04 531.801,437.817C530.774,441.303 529.897,444.829 528.672,448.255C527.766,450.714 524.914,451.627 522.513,451.147C517.111,450.22 511.807,448.436 506.269,448.616C502.403,448.526 498.837,450.598 496.194,453.286C491.929,457.457 489.721,463.291 488.73,469.079C487.944,473.26 488.168,477.534 488.132,481.76C488.132,499.518 488.138,517.288 488.128,535.047C488.38,537.967 485.359,539.95 482.723,540.051C479.102,540.102 475.489,540.148 471.873,540.023C469.259,539.886 466.317,537.978 466.655,535.036C466.641,502.151 466.619,469.277 466.663,436.392C466.439,433.122 470.062,431.344 472.905,431.65C476.47,431.885 481.338,430.544 483.656,434.132C485.416,438.293 486.253,442.786 487.905,446.983C492.877,440.16 499.468,434.146 507.61,431.46M138.462,433.969C139.467,432.816 140.643,431.567 142.32,431.687C147.231,431.64 152.156,431.532 157.064,431.759C159.555,431.831 161.272,434.02 161.636,436.338C166.464,455.972 171.206,475.634 176.012,495.275C177.422,501.339 179.138,507.344 180.058,513.513C181.006,519.055 181.194,524.68 182.095,530.232C183.336,522.307 184.446,514.331 186.584,506.59C192.869,483.148 199.15,459.711 205.442,436.277C205.933,433.605 208.446,431.705 211.118,431.705C216.584,431.567 222.061,431.662 227.528,431.662C230.459,431.524 233.597,433.237 234.303,436.241C238.998,453.329 243.635,470.448 248.312,487.551C251.149,498.628 254.866,509.518 256.472,520.883C256.915,524.012 257.348,527.15 257.993,530.258C259.756,512.402 264.35,495.029 268.129,477.545C271.248,463.635 274.298,449.709 277.453,435.797C277.918,433.003 280.875,431.597 283.479,431.676C287.9,431.651 292.328,431.524 296.741,431.748C299.362,431.824 300.869,434.722 299.946,437.06C291.076,469.789 282.238,502.54 273.365,535.271C272.889,537.894 270.603,539.944 267.923,539.986C261.072,540.21 254.207,540.041 247.356,540.076C244.901,540.228 242.304,538.911 241.871,536.326C235.739,513.819 229.728,491.272 223.652,468.747C221.452,460.911 220.562,452.788 219.638,444.729C218.51,451.905 217.951,459.198 216.04,466.249C209.82,489.441 203.564,512.644 197.329,535.84C196.627,539.597 192.332,540.347 189.137,540.102C182.766,539.986 176.395,540.25 170.029,539.986C167.762,539.993 166.013,538.227 165.606,536.085C156.664,503.485 147.75,470.871 138.801,438.278C138.491,436.854 138.53,435.401 138.462,433.969M941.958,431.748C946.61,431.669 951.279,431.651 955.931,431.748C958.761,431.788 961.422,433.724 962.313,436.428C970.346,457.421 978.323,478.453 986.345,499.457C988.021,503.719 989.194,508.165 989.944,512.68C993.261,500.222 997.678,488.099 1001.56,475.803C1005.87,462.509 1010.19,449.212 1014.52,435.912C1015.17,433.598 1017.37,432.019 1019.72,431.824C1023.51,431.543 1027.34,431.788 1031.14,431.686C1033.37,431.712 1036.02,431.452 1037.71,433.237C1038.81,434.168 1038.58,435.714 1038.12,436.923C1025.28,473.539 1012.48,510.174 999.661,546.801C997.433,552.902 995.72,559.288 992.133,564.776C986.986,573.134 978.647,579.152 969.481,582.409C966.28,583.4 962.973,585.599 959.529,584.366C957.085,583.743 956.147,581.2 954.842,579.333C953.905,577.638 952.174,576.069 952.534,573.96C952.703,571.869 954.38,570.166 956.356,569.608C960.221,568.274 964.151,566.802 967.282,564.073C974.89,557.636 979.595,548.117 981.387,538.428C980.173,534.127 977.926,530.171 976.296,526.007C964.054,497.557 951.813,469.097 939.543,440.658C938.803,438.797 937.713,437.023 937.505,435.004C937.533,432.787 940.076,431.813 941.958,431.748M371.185,445.508C364.508,446.749 358.417,450.906 355.028,456.827C349.364,466.429 348.711,478.014 348.967,488.904C349.37,498.762 350.953,509.276 357.242,517.245C361.933,523.238 369.641,526.248 377.136,526.133C384.343,526.363 391.894,523.922 396.779,518.441C403.02,511.616 405.025,502.144 405.884,493.212C406.263,484.44 406.44,475.508 404.164,466.941C402.354,459.704 398.532,452.467 391.919,448.569C385.764,444.793 378.159,444.441 371.185,445.508ZM374.005,429.895C386.089,429.152 398.748,431.662 408.722,438.819C417.642,445.165 423.7,454.945 426.531,465.43C429.895,477.949 429.88,491.308 426.83,503.892C423.956,515.492 417.235,526.428 407.096,533.02C396.26,540.21 382.648,542.077 369.931,540.545C359.096,539.211 348.538,534.459 340.994,526.475C332.128,517.187 327.725,504.39 326.809,491.741C325.695,477.714 327.844,462.866 335.647,450.888C341.42,441.873 350.597,435.25 360.833,432.227C365.102,430.894 369.556,430.274 374.005,429.894M730.425,444.938C723.801,445.364 717.408,449.175 714.451,455.222C708.675,466.404 708.556,479.416 708.844,491.713C709.306,499.746 710.179,508.039 713.922,515.294C716.453,520.18 721.051,524.038 726.487,525.22C734.806,527.222 744.597,525.527 750.51,518.954C756.207,512.467 758.081,503.647 758.958,495.3C759.56,485.784 759.596,476.074 757.234,466.76C755.611,460.533 752.864,454.313 747.932,449.985C743.201,445.822 736.609,444.217 730.425,444.938ZM758.929,384.613C758.778,382.09 761.356,380.478 763.598,380.283C767.186,380.088 770.785,380.182 774.38,380.221C777.12,380.196 780.185,382.234 779.789,385.277C779.789,434.943 779.799,484.601 779.782,534.261C779.969,536.824 777.444,538.815 775.076,538.97C772.216,539.121 769.35,539.121 766.501,538.923C764.492,538.797 762.545,537.509 761.861,535.587C760.786,532.36 760.227,529.007 759.408,525.726C755.442,531.105 750.329,535.865 743.976,538.227C734.914,541.562 724.828,541.616 715.516,539.344C706.158,537.094 698.01,530.665 693.495,522.203C686.409,509.283 685.569,494.084 686.013,479.673C686.265,467.359 688.617,454.367 696.639,444.596C702.69,436.313 712.605,431.56 722.619,430.317C731.94,428.953 742.047,430.521 749.763,436.169C753.412,438.736 756.333,442.179 758.94,445.779C758.867,425.395 758.886,405.004 758.929,384.613M859.224,445.558C855.899,446.236 852.679,447.57 849.992,449.65C844.62,453.833 841.952,460.479 840.527,466.933C838.454,477.174 838.483,487.75 839.554,498.105C840.557,505.714 842.468,513.833 848.046,519.459C852.589,524.229 859.44,525.978 865.851,525.664C872.746,525.913 879.921,523.346 884.367,517.93C889.927,511.205 891.495,502.259 892.306,493.832C892.823,483.923 892.829,473.777 890.046,464.157C888.287,458.164 885.07,452.204 879.643,448.789C873.665,444.866 866.103,444.505 859.224,445.558ZM849.992,431.957C859.559,429.307 869.799,429.152 879.463,431.362C888.442,433.443 896.85,438.483 902.367,445.948C908.201,453.599 911.147,463.086 912.372,472.54C913.437,479.83 913.13,487.215 913.141,494.561C913.141,507.816 913.141,521.074 913.105,534.325C913.249,535.941 912.228,537.372 910.912,538.212C908.688,539.583 905.93,538.977 903.448,539.132C900.665,539.11 897.005,539.355 895.49,536.459C894.012,533.056 893.706,529.259 892.757,525.679C889.025,530.215 885.16,534.895 879.758,537.516C871.53,541.584 861.91,541.346 853.104,539.626C842.33,537.498 832.407,531.127 826.314,521.946C819.056,511.255 816.423,498.058 816.523,485.305C816.434,472.871 818.868,460.018 825.78,449.499C831.308,440.9 840.178,434.673 849.992,431.957M1042.69,513.394C1037.21,515.402 1033.77,521.712 1035.17,527.409C1036.59,534.098 1044.37,538.663 1050.86,536.189C1056.85,534.362 1060.62,527.535 1058.77,521.517C1057.14,514.746 1049.1,510.743 1042.68,513.394L1042.69,513.394ZM1043.44,510.534C1046.69,510.022 1050.21,509.986 1053.22,511.49C1058.35,513.819 1062.04,519.325 1061.48,525.051C1061.91,531.88 1056.16,537.985 1049.61,539.085C1042.23,540.653 1034.28,535.306 1032.78,527.943C1030.84,520.533 1035.99,512.193 1043.44,510.534" style="fill:rgb(48,105,181);fill-rule:nonzero;"/>
    </g>
    <g transform="matrix(1,0,0,1,-122,-195)">
        <path d="M1044.97,518.857C1044.95,520.411 1044.95,521.965 1044.97,523.519C1046.33,523.436 1047.73,523.519 1049.07,523.148C1050.33,522.624 1050.2,521.02 1049.86,519.946C1048.56,518.669 1046.62,519.001 1044.97,518.857ZM1040.87,516.332C1044.79,516.556 1049.19,515.449 1052.72,517.637C1055.57,519.776 1054.19,524.428 1050.97,525.419C1051.9,527.87 1053.19,530.15 1054.37,532.486C1052.88,532.515 1051.42,532.54 1049.96,532.566C1048.91,530.399 1047.87,528.22 1046.86,526.032C1046.22,526.014 1045.59,526.007 1044.97,525.996C1044.96,528.177 1044.96,530.359 1044.96,532.54C1043.57,532.522 1042.21,532.504 1040.85,532.494C1040.86,527.103 1040.84,521.712 1040.87,516.332" style="fill:rgb(48,105,181);fill-rule:nonzero;"/>
    </g>
</svg>
